<svg width="256" height="256" viewBox="0 0 24 24" xmlns="http://www.w3.org/2000/svg"><rect x="0" y="0" width="24" height="24" rx="8" fill="none"/><svg xmlns="http://www.w3.org/2000/svg" viewBox="0 0 24 24" fill="#000000" x="0" y="0" width="24" height="24"><path fill="none" stroke="#000000" d="M0 22.5h24M13.5 20v-6S11 12.5 7 12.5S.5 14 .5 14v6m17-18.5v3h-3v3h3v3h3v-3h3v-3h-3v-3h-3Zm-10.756 9S3.999 8.752 3.999 6.566c0-1.691 1.344-3.062 3.002-3.062c1.658 0 2.995 1.371 2.995 3.062C9.996 8.75 7.26 10.5 7.26 10.5h-.515Z"/></svg></svg>